<svg xmlns="http://www.w3.org/2000/svg" viewBox="0 0 126 126">
  <defs>
    <style>
      .cls-1 {
        fill: #222;
      }

      .cls-2 {
        fill: #fff;
      }
    </style>
  </defs>
  <g id="Group_189" data-name="Group 189" transform="translate(-1200 -2469)">
    <circle id="Ellipse_11" data-name="Ellipse 11" class="cls-1" cx="63" cy="63" r="63" transform="translate(1200 2469)"/>
    <g id="_11" data-name="11" transform="translate(1229.878 2503.8)">
      <g id="row3_1_" transform="translate(12)">
        <path id="passcode_1_" class="cls-2" d="M32.295,15.07a3.354,3.354,0,0,0-3.064-1.909,3.473,3.473,0,0,0-3.466,3.466,5.029,5.029,0,0,0,.7,2.06C26.468,14.869,30.938,13.714,32.295,15.07ZM29.231,6.983a3.466,3.466,0,1,0-3.466-3.466A3.473,3.473,0,0,0,29.231,6.983Zm0,26.273a3.284,3.284,0,0,0,2.662-1.306l-2.562-5.626h-.1a3.466,3.466,0,0,0,0,6.932ZM42.995,20.094a3.466,3.466,0,1,0-3.466-3.466A3.473,3.473,0,0,0,42.995,20.094Zm0-13.111a3.466,3.466,0,1,0-3.466-3.466A3.473,3.473,0,0,0,42.995,6.983ZM15.466,26.273a3.466,3.466,0,1,0,3.466,3.466A3.575,3.575,0,0,0,15.466,26.273ZM15.466,0a3.466,3.466,0,1,0,3.466,3.466A3.54,3.54,0,0,0,15.466,0Zm0,13.161a3.466,3.466,0,1,0,3.466,3.466A3.54,3.54,0,0,0,15.466,13.161ZM59.12,29.839s-.653-4.471-3.516-3.768c-2.009.452-1.557,6.33-1.557,6.33s-.151-.9-.9-5.727a2.876,2.876,0,0,0-3.868-1.859c-1.959.653-2.16,5.877-2.16,5.877.05.05-2.21-6.229-2.21-6.229a2.717,2.717,0,0,0-3.064-1.859c-2.813.4-2.361,2.662-2.361,2.662l.5,5.677-6.33-12.91s-1.457-2.813-3.768-2.512c-2.914.452-2.512,3.567-2.512,3.567s6.681,12.659,8.038,21.249c.2,1.608-.1,2.21-1.608,1.608-3.617-1.658-5.375-5.023-8.942-7.033a2.563,2.563,0,0,0-3.918,1.507c-.3,1.708,5.275,9.494,12.157,15.824C36.213,55.057,48.923,64.2,48.923,64.2l15.322-6.731Z" transform="translate(-12)"/>
      </g>
    </g>
  </g>
</svg>
