<svg xmlns="http://www.w3.org/2000/svg" viewBox="0 0 126 126">
  <defs>
    <style>
      .cls-1 {
        fill: #222;
      }

      .cls-2 {
        fill: #fff;
      }
    </style>
  </defs>
  <g id="Group_187" data-name="Group 187" transform="translate(-563 -2469)">
    <circle id="Ellipse_10" data-name="Ellipse 10" class="cls-1" cx="63" cy="63" r="63" transform="translate(563 2469)"/>
    <g id="_5" data-name="5" transform="translate(591.121 2486.82)">
      <g id="row1_1_" transform="translate(0 22.2)">
        <path id="hooter_1_" class="cls-2" d="M52.645,27.1,50.52,25.851,43.108,38.658l2.125,1.253ZM36.132,22.2H33.68V36.969h2.452Zm15.7,24.361,12.807-7.412-1.253-2.125L50.629,44.435Zm-25.178-7.9L19.238,25.851,17.112,27.1l7.412,12.807Zm8.229-.055A18.491,18.491,0,0,0,16.4,57.079V67.761h36.95V57.079A18.491,18.491,0,0,0,34.879,38.6Zm.436,4.142A13.84,13.84,0,0,0,21.363,56.7l-1.635-.817c0-7.248,5.831-14.769,15.587-14.769C35.478,41.056,35.1,42.746,35.315,42.746Zm19.674,9.81v2.452H69.758V52.556Zm-35.86-8.12L6.376,37.024,5.123,39.149,17.93,46.561ZM0,55.008H14.769V52.556H0Z" transform="translate(0 -22.2)"/>
      </g>
    </g>
  </g>
</svg>
