<svg xmlns="http://www.w3.org/2000/svg" viewBox="0 0 126 126">
  <defs>
    <style>
      .cls-1 {
        fill: #222;
      }

      .cls-2 {
        fill: #fff;
      }
    </style>
  </defs>
  <g id="Group_181" data-name="Group 181" transform="translate(-243 -2237)">
    <circle id="Ellipse_4" data-name="Ellipse 4" class="cls-1" cx="63" cy="63" r="63" transform="translate(243 2237)"/>
    <g id="_1" data-name="1" transform="translate(274.05 2264.687)">
      <g id="row1_1_" transform="translate(0 16.9)">
        <g id="cctv">
          <path id="Path_4_" class="cls-2" d="M10.6,57.736v5.342h1.8V57.736Zm0-17.772v5.292h1.8V39.964ZM13.3,16.9V31.976H57.427L67.411,16.9H13.3Zm5.292,12.431a1.684,1.684,0,0,1-1.8-1.5V21.093a1.687,1.687,0,0,1,1.8-1.548Zm3.594,0a1.684,1.684,0,0,1-1.8-1.5V21.093a1.687,1.687,0,0,1,1.8-1.548Zm3.544,0a1.684,1.684,0,0,1-1.8-1.5V21.093a1.687,1.687,0,0,1,1.8-1.548Zm3.544,0a1.668,1.668,0,0,1-1.747-1.5V21.093a1.671,1.671,0,0,1,1.747-1.548ZM68.16,23.09h-.549a1.016,1.016,0,0,0-1.1.9v6.19a1.016,1.016,0,0,0,1.1.9h.549a.968.968,0,0,0,1.048-.9v-6.19A1,1,0,0,0,68.16,23.09Zm-8.686,7.988h6.19V22.192Zm-40.836,1.8v4.443H53.483l3.345-4.443Z" transform="translate(-5.308 -16.9)"/>
          <path id="Path_1_" class="cls-2" d="M31.95,62.2v7.139A3.07,3.07,0,0,1,34.6,72.38a3.111,3.111,0,0,1-3.1,3.1H4.443V85.26H0V60.4H4.443v8.886H29.3V62.2h-6.24V59.5H37.242v2.7Z" transform="translate(0 -38.233)"/>
        </g>
      </g>
    </g>
  </g>
</svg>
