<svg xmlns="http://www.w3.org/2000/svg" viewBox="0 0 126 126">
  <defs>
    <style>
      .cls-1 {
        fill: #222;
      }

      .cls-2 {
        fill: none;
        stroke: #fff;
        stroke-linecap: square;
        stroke-miterlimit: 10;
        stroke-width: 2.632px;
      }
    </style>
  </defs>
  <g id="Group_188" data-name="Group 188" transform="translate(-881 -2589)">
    <circle id="Ellipse_12" data-name="Ellipse 12" class="cls-1" cx="63" cy="63" r="63" transform="translate(881 2589)"/>
    <g id="_x39__1_" transform="translate(917.029 2622.876)">
      <path id="Path_313" data-name="Path 313" class="cls-2" d="M35.827,32.174l-2.478,2.478-3.47,3.47-3.47,3.47-6.94-6.94L16,38.122l6.94,6.94,3.47,3.47,3.47-3.47,3.47-3.47,3.47-3.47,3.47-3.47,2.065-1.983-3.47-3.47" transform="translate(-2.556 -4.764)"/>
      <path id="Path_314" data-name="Path 314" class="cls-2" d="M43.763,7.666A27.263,27.263,0,0,1,31.784,5.022,22.733,22.733,0,0,1,26.58,1.8a22.733,22.733,0,0,1-5.2,3.222A28.465,28.465,0,0,1,9.4,7.666H1.3v30.65A19.8,19.8,0,0,0,7.331,52.607c5.7,5.453,19.249,12.64,19.249,12.64s13.631-7.1,19.332-12.64a19.8,19.8,0,0,0,6.031-14.292V7.666Z" transform="translate(0 0)"/>
      <path id="Path_315" data-name="Path 315" class="cls-2" d="M46.707,20.157V39.984a13.511,13.511,0,0,1-4.048,9.583c-3.552,3.47-11.649,8.179-14.705,9.831-2.974-1.652-11.153-6.361-14.705-9.831a13.322,13.322,0,0,1-4.048-9.5V15.944h1.57a34.306,34.306,0,0,0,14.788-3.3c.826-.413,1.57-.826,2.313-1.239.744.413,1.57.826,2.4,1.239a34.306,34.306,0,0,0,14.788,3.3h1.57" transform="translate(-1.374 -1.669)"/>
    </g>
  </g>
</svg>
