<svg xmlns="http://www.w3.org/2000/svg" viewBox="0 0 126 126">
  <defs>
    <style>
      .cls-1 {
        fill: #222;
      }

      .cls-2 {
        fill: #fff;
      }
    </style>
  </defs>
  <g id="Group_182" data-name="Group 182" transform="translate(-562 -2235)">
    <circle id="Ellipse_5" data-name="Ellipse 5" class="cls-1" cx="63" cy="63" r="63" transform="translate(562 2235)"/>
    <g id="_10" data-name="10" transform="translate(590.274 2251.816)">
      <g id="row2_1_" transform="translate(0 23.2)">
        <path id="computer_x5F_lock_1_" class="cls-2" d="M35.7,38.151a2.36,2.36,0,0,0-2.4,2.287V41.61h4.8V40.439A2.324,2.324,0,0,0,35.7,38.151Zm0,16.792a11.1,11.1,0,1,0-11.213-11.1A11.155,11.155,0,0,0,35.7,54.944Zm-4.8-12.218h1.172V40.439a3.537,3.537,0,0,1,3.57-3.459,3.5,3.5,0,0,1,3.57,3.459v2.287h1.172v6.918H30.907ZM68.229,62.364h-3.18V28.221A5.084,5.084,0,0,0,59.973,23.2H11.492a5.048,5.048,0,0,0-5.077,5.021V62.308H3.18A3.253,3.253,0,0,0,0,65.488a3.215,3.215,0,0,0,3.18,3.18H68.174a3.144,3.144,0,0,0,3.18-3.18A3.084,3.084,0,0,0,68.229,62.364Zm-6.416-2.12H9.6V26.436H61.814Z" transform="translate(0 -23.2)"/>
      </g>
    </g>
  </g>
</svg>
